/* XPM */
static char *dummy[]={
"32 32 10 1",
"f c #ff8e8e",
"# c #ffffff",
"a c #ffffff",
"g c #ffffff",
"e c #ff8e8e",
"c c #ffffff",
"d c #ff8e8e",
"h c #ffffff",
". c #ffffff",
"b c None",
".#a########b######bbbbbbbbbbbbbb",
"bbbbbbbbbbbbbbbbbbbbbbbbbbbbbbbb",
"bbbbbbbbbbbbc###################",
"################################",
"############c#c##bbbbbbbbbbbbbbb",
"bbbbbbbbbbbbbbbb######bbbbbbbbbb",
"bbbbbbddddddddddddddddddddbbbbbb",
"bbbbbbddddddddddeffdefffef.#####",
"####bbddddddddddddddddddddbbbbbb",
"bbbbbbddddddddddddddddddddbbbbbb",
"bb##bbddddddddddddddddddddbbbbbb",
"bbbbbbddddddddddddddddddddbbbbbb",
"bb##bbddddddddddddddddddddbbbbbb",
"bbbbbbddddddddddddddddddddbbbbbb",
"bb##bbddddddddddddddddddddbbbbbb",
"bbbbbbddddddddddddddddddddbbbbbb",
"bb##bbddddddddddddddddddddbbbbbb",
"bbbbbbddddddddddddddddddddbbbbbb",
"bbg#g#ddffffddddddddddddddbbbbbb",
"bbbbbbddddddddddddddddddddbbbbbb",
"bbbbbbddddddddddddddddddddbbbbbb",
"bbbbbbddddddddddddddddddddbbbbbb",
"bbbbbbddffffddddddddddddddbbbbbb",
"bbbbbbddddddddddddddddddddbbbbbb",
"bbbbbbddddddddddddddddddddbbbbbb",
"bbbbbbddddddddddddddddddddbbbbbb",
"bbbbbbbb##bbbbbbbbbbbbbbbbbbbbbb",
"bbbbbbbbbbbbbbbbbbbbbbbbbbbbbbbb",
"bbbbbbbbh###.#.#bbbbbbbbbbbbbbbb",
"bbbbbbbbbbbbbbbbbbbbbbbbbbbbbbbb",
"bbbbbbbbbbbbbbbbbbbbbbbbbbbbbbbb",
"bbbbbbbbbbbbbbbbbbbbbbbbbbbbbbbb"};
