/* XPM */
static char *dummy[]={
"32 32 25 1",
"e c #0000ff",
"g c #00ff00",
"h c #ff0000",
"# c None",
"k c #ffffff",
"a c #ffffff",
"s c #ffffff",
"c c #ffffff",
"j c #ffffff",
"r c #ffffff",
". c #ffffff",
"w c #ffffff",
"d c #ffffff",
"f c #0000ff",
"i c #ff0000",
"b c #ffffff",
"t c #ffffff",
"n c #0000ff",
"o c #ffffff",
"l c #0000ff",
"v c #ffffff",
"m c #0000ff",
"u c #ffffff",
"q c #0000ff",
"p c #ffffff",
".#.#a#a#b#a##################c##",
"##############################d#",
"d###b#b#b#b#b#b#b#b#b#b#########",
"################################",
"########b#b#b#b#b#b#b#b#b#b#####",
"################################",
"########e#######b###b#######b###",
"b###b#befeb#b#############b#####",
"####ggggggggggg#hhhhh###########",
"###gggggggggggghhhhhhhh#########",
"###gggggggggggghhhhhhhhh########",
"###gggggggggggghhhhhhhhhh#######",
"###gggggggggggghhhhhhhhhhh######",
"###ggggggggggggehhhhhhhhhh######",
"###ggggggggggggeehhhhhhhhhh#####",
"####gggggggggggeeehhhhhhhhh#####",
"####gggggggggggeeehhhhhhhhh#####",
"######eeeeeeeeeeehhhhhhhhhh#####",
"######eeeeeeeeeehhhhhhhhihb#b#b#",
"b#b#b#befefeeefhhhhhhhhhhh##j#k#",
"#######elemlnmhhhhhhhhhhh#######",
"j#o####eeeeeehhhhhhhhhhh########",
"#######eeeee##hhhhhhhhh#########",
"######pqqqe#####hhhhh###########",
"#######eeepp####################",
"########e###############p#######",
"##################b#############",
"r#s#########t#uvow##############",
"####r#o#########################",
"##################p#############",
"#k########pppp##################",
"##############pp################"};
