/* XPM */
static char * pyfFolder_xpm[] = {
"64 64 629 2",
"  	c None",
". 	c #FFFFFF",
"+ 	c #FAFAFA",
"@ 	c #F7F7F7",
"# 	c #F1F1F1",
"$ 	c #F0F0F0",
"% 	c #EBEBEB",
"& 	c #E9E9EA",
"* 	c #E6E6E6",
"= 	c #F4F4F4",
"- 	c #FDFEFD",
"; 	c #FDFDFD",
"> 	c #FDFEFE",
", 	c #FDFDFE",
"' 	c #FEFDFD",
") 	c #FEFEFD",
"! 	c #FEFDFE",
"~ 	c #FEFEFE",
"{ 	c #FAFBFB",
"] 	c #FBFBFB",
"^ 	c #FBFBFA",
"/ 	c #FBFAFB",
"( 	c #FCFBFB",
"_ 	c #FCFBFC",
": 	c #F9F9F8",
"< 	c #F8F9F9",
"[ 	c #F8F9F8",
"} 	c #F9F9F9",
"| 	c #F9F8F9",
"1 	c #F8F8F8",
"2 	c #F8F8F9",
"3 	c #F9F8F8",
"4 	c #F6F6F7",
"5 	c #F6F7F6",
"6 	c #F6F6F6",
"7 	c #F6F7F7",
"8 	c #F7F6F6",
"9 	c #F7F7F6",
"0 	c #F7F6F7",
"a 	c #F3F3F4",
"b 	c #F3F4F4",
"c 	c #F3F4F3",
"d 	c #F4F3F4",
"e 	c #F4F4F3",
"f 	c #F4F4F5",
"g 	c #F5F4F4",
"h 	c #F5F5F4",
"i 	c #F2F1F2",
"j 	c #F2F2F2",
"k 	c #F2F1F1",
"l 	c #F1F1F2",
"m 	c #F1F2F1",
"n 	c #F2F2F1",
"o 	c #F1F2F2",
"p 	c #EFE7E9",
"q 	c #EFE6E9",
"r 	c #F1E1E6",
"s 	c #F0E2E5",
"t 	c #F0E1E5",
"u 	c #F1E1E5",
"v 	c #F0E1E6",
"w 	c #F0DAE0",
"x 	c #F1DADF",
"y 	c #F0DADF",
"z 	c #F0DBDF",
"A 	c #F1DAE0",
"B 	c #F1D2DA",
"C 	c #F1D0D8",
"D 	c #F1D0D9",
"E 	c #F2D1D9",
"F 	c #F2D0D8",
"G 	c #F1D1D8",
"H 	c #F1D1D9",
"I 	c #F2D0D9",
"J 	c #F2D1D8",
"K 	c #FF3366",
"L 	c #0C0C0C",
"M 	c #100D0E",
"N 	c #160E10",
"O 	c #1D0F12",
"P 	c #0E0D0D",
"Q 	c #140D0F",
"R 	c #1A0E11",
"S 	c #200F13",
"T 	c #261115",
"U 	c #170D10",
"V 	c #231014",
"W 	c #291116",
"X 	c #2F1119",
"Y 	c #0E0C0C",
"Z 	c #200F14",
"` 	c #261016",
" .	c #2D1218",
"..	c #32131B",
"+.	c #39131C",
"@.	c #110D0D",
"#.	c #170E10",
"$.	c #1E0E12",
"%.	c #231015",
"&.	c #2A1116",
"*.	c #301119",
"=.	c #36131C",
"-.	c #3C141D",
";.	c #421520",
">.	c #0E0C0D",
",.	c #140E0F",
"'.	c #1A0E12",
").	c #271016",
"!.	c #2C1118",
"~.	c #33121B",
"{.	c #39141D",
"].	c #3F141F",
"^.	c #451521",
"/.	c #4B1624",
"(.	c #110D0E",
"_.	c #180D10",
":.	c #1E0F13",
"<.	c #241015",
"[.	c #2A1117",
"}.	c #301219",
"|.	c #36121C",
"1.	c #421420",
"2.	c #481522",
"3.	c #4E1624",
"4.	c #551727",
"5.	c #201013",
"6.	c #2D1118",
"7.	c #33131B",
"8.	c #4C1624",
"9.	c #521726",
"0.	c #571828",
"a.	c #5E192A",
"b.	c #120D0E",
"c.	c #180E10",
"d.	c #1D0F13",
"e.	c #230F15",
"f.	c #3C141E",
"g.	c #431420",
"h.	c #481623",
"i.	c #4F1725",
"j.	c #541827",
"k.	c #5B1929",
"l.	c #611A2C",
"m.	c #671B2D",
"n.	c #150E0F",
"o.	c #211014",
"p.	c #271116",
"q.	c #33121A",
"r.	c #3A131C",
"s.	c #3F151F",
"t.	c #4C1623",
"u.	c #511726",
"v.	c #581828",
"w.	c #5D192A",
"x.	c #641A2C",
"y.	c #6A1B2E",
"z.	c #701C31",
"A.	c #170E11",
"B.	c #37131C",
"C.	c #481523",
"D.	c #4E1625",
"E.	c #5B1829",
"F.	c #611A2B",
"G.	c #671A2E",
"H.	c #6D1C30",
"I.	c #731C33",
"J.	c #7A1D34",
"K.	c #150D0F",
"L.	c #1B0F11",
"M.	c #2E1118",
"N.	c #34131B",
"O.	c #461522",
"P.	c #641A2D",
"Q.	c #6A1B2F",
"R.	c #711C31",
"S.	c #761D33",
"T.	c #7D1E36",
"U.	c #831F38",
"V.	c #180E11",
"W.	c #31111A",
"X.	c #3D141F",
"Y.	c #491622",
"Z.	c #4F1624",
"`.	c #681A2E",
" +	c #6D1C31",
".+	c #731D32",
"++	c #801E37",
"@+	c #861F39",
"#+	c #8C203B",
"$+	c #0F0C0D",
"%+	c #160D10",
"&+	c #1C0E11",
"*+	c #220F14",
"=+	c #2E1219",
"-+	c #34121B",
";+	c #39131D",
">+	c #40141F",
",+	c #461621",
"'+	c #581829",
")+	c #5E1A2A",
"!+	c #651A2D",
"~+	c #6B1B2F",
"{+	c #711C32",
"]+	c #771D34",
"^+	c #831F39",
"/+	c #8A203A",
"(+	c #90213D",
"_+	c #96223E",
":+	c #120D0F",
"<+	c #2A1118",
"[+	c #30121A",
"}+	c #37131B",
"|+	c #3D141E",
"1+	c #441520",
"2+	c #491522",
"3+	c #561827",
"4+	c #5B192A",
"5+	c #62192C",
"6+	c #681B2E",
"7+	c #6E1C30",
"8+	c #741D32",
"9+	c #7A1E35",
"0+	c #801F37",
"a+	c #871F39",
"b+	c #8C213B",
"c+	c #92223E",
"d+	c #992340",
"e+	c #9E2442",
"f+	c #150E10",
"g+	c #1C0E12",
"h+	c #221014",
"i+	c #281116",
"j+	c #2E1218",
"k+	c #3A141D",
"l+	c #41141F",
"m+	c #531826",
"n+	c #5E1A2B",
"o+	c #651A2C",
"p+	c #6A1B30",
"q+	c #841F38",
"r+	c #89203A",
"s+	c #8F213C",
"t+	c #96223F",
"u+	c #9C2342",
"v+	c #A22444",
"w+	c #A82545",
"x+	c #130D0F",
"y+	c #190E10",
"z+	c #251015",
"A+	c #2B1118",
"B+	c #31121A",
"C+	c #38131B",
"D+	c #491623",
"E+	c #5C182A",
"F+	c #621A2C",
"G+	c #7B1E35",
"H+	c #862039",
"I+	c #8C213C",
"J+	c #92213E",
"K+	c #992341",
"L+	c #9F2342",
"M+	c #A52445",
"N+	c #AB2647",
"O+	c #B1274A",
"P+	c #0F0D0E",
"Q+	c #1C0F11",
"R+	c #281017",
"S+	c #3B141D",
"T+	c #471621",
"U+	c #4D1624",
"V+	c #521826",
"W+	c #591828",
"X+	c #5F192A",
"Y+	c #721D31",
"Z+	c #7E1F36",
"`+	c #89203B",
" @	c #90223D",
".@	c #9C2341",
"+@	c #A32444",
"@@	c #A82546",
"#@	c #AE2648",
"$@	c #B5274A",
"%@	c #BB284C",
"&@	c #0D0C0C",
"*@	c #1F0F13",
"=@	c #2B1117",
"-@	c #311219",
";@	c #38131C",
">@	c #3E141F",
",@	c #4A1623",
"'@	c #501725",
")@	c #5C1929",
"!@	c #6F1C30",
"~@	c #751D33",
"{@	c #811F37",
"]@	c #87203A",
"^@	c #8D203C",
"/@	c #93223F",
"(@	c #A52545",
"_@	c #AC2547",
":@	c #B22749",
"<@	c #B8274B",
"[@	c #BD284E",
"}@	c #C42950",
"|@	c #1C0F12",
"1@	c #281016",
"2@	c #2F1218",
"3@	c #411420",
"4@	c #471522",
"5@	c #4D1724",
"6@	c #601A2B",
"7@	c #661A2D",
"8@	c #6C1B2F",
"9@	c #721C31",
"0@	c #781E34",
"a@	c #842038",
"b@	c #8A213B",
"c@	c #91213D",
"d@	c #9D2341",
"e@	c #A92546",
"f@	c #AF2648",
"g@	c #B5274B",
"h@	c #BB284D",
"i@	c #C0294F",
"j@	c #C72A51",
"k@	c #CE2B54",
"l@	c #190E11",
"m@	c #2B1217",
"n@	c #501626",
"o@	c #571827",
"p@	c #5C192A",
"q@	c #691B2E",
"r@	c #811F38",
"s@	c #8D213C",
"t@	c #94223E",
"u@	c #A02442",
"v@	c #A52444",
"w@	c #AC2648",
"x@	c #B2264A",
"y@	c #B8284C",
"z@	c #BF284E",
"A@	c #C52A50",
"B@	c #CA2A52",
"C@	c #D02C54",
"D@	c #D62C57",
"E@	c #281117",
"F@	c #35121B",
"G@	c #3A141E",
"H@	c #411520",
"I@	c #5A1928",
"J@	c #5F192B",
"K@	c #771E34",
"L@	c #7E1E37",
"M@	c #8B213B",
"N@	c #91223D",
"O@	c #9D2342",
"P@	c #AF2748",
"Q@	c #C1294F",
"R@	c #C82A52",
"S@	c #D42C56",
"T@	c #DA2D58",
"U@	c #E02E5A",
"V@	c #0D0D0C",
"W@	c #251016",
"X@	c #2C1217",
"Y@	c #32121A",
"Z@	c #8D213B",
"`@	c #9A2240",
" #	c #9F2343",
".#	c #A62545",
"+#	c #AC2647",
"@#	c #B8274C",
"##	c #BE294E",
"$#	c #CB2B52",
"%#	c #D12C54",
"&#	c #DD2D59",
"*#	c #E32F5C",
"=#	c #EA305E",
"-#	c #100C0E",
";#	c #291017",
">#	c #35131B",
",#	c #471622",
"'#	c #541726",
")#	c #591829",
"!#	c #60192B",
"~#	c #661A2E",
"{#	c #721D32",
"]#	c #791D34",
"^#	c #841F39",
"/#	c #8A203B",
"(#	c #962240",
"_#	c #9D2442",
":#	c #B5284B",
"<#	c #D32C56",
"[#	c #E02E5B",
"}#	c #E62F5D",
"|#	c #ED305F",
"1#	c #F23161",
"2#	c #0D0C0D",
"3#	c #140D0E",
"4#	c #2C1117",
"5#	c #4B1623",
"6#	c #501726",
"7#	c #631A2C",
"8#	c #691B2F",
"9#	c #6F1C31",
"0#	c #821E37",
"a#	c #88203A",
"b#	c #8E213C",
"c#	c #A02343",
"d#	c #A62445",
"e#	c #B9284C",
"f#	c #BF284F",
"g#	c #C42A50",
"h#	c #CB2B53",
"i#	c #D12B54",
"j#	c #D72C57",
"k#	c #DD2E59",
"l#	c #EF3061",
"m#	c #F63263",
"n#	c #FC3364",
"o#	c #2F1219",
"p#	c #3B131E",
"q#	c #5A1929",
"r#	c #661B2E",
"s#	c #6C1B30",
"t#	c #7F1E37",
"u#	c #851F38",
"v#	c #8B203B",
"w#	c #91223E",
"x#	c #97223F",
"y#	c #A32544",
"z#	c #B6274B",
"A#	c #BC284D",
"B#	c #C2294F",
"C#	c #C82A51",
"D#	c #F33161",
"E#	c #F93263",
"F#	c #261015",
"G#	c #511725",
"H#	c #7C1E35",
"I#	c #821F38",
"J#	c #9A2341",
"K#	c #A02443",
"L#	c #AC2548",
"M#	c #B3274A",
"N#	c #C52950",
"O#	c #CB2A52",
"P#	c #D12C55",
"Q#	c #D72D57",
"R#	c #DE2E5A",
"S#	c #E32F5B",
"T#	c #E9305E",
"U#	c #F03160",
"V#	c #F63162",
"W#	c #FC3365",
"X#	c #110C0E",
"Y#	c #291117",
"Z#	c #5A1829",
"`#	c #721C32",
" $	c #791D35",
".$	c #7F1F37",
"+$	c #851F39",
"@$	c #982240",
"#$	c #A42444",
"$$	c #B02648",
"%$	c #B6284B",
"&$	c #C22950",
"*$	c #CF2B54",
"=$	c #D52C56",
"-$	c #DA2D59",
";$	c #E12E5B",
">$	c #E72F5D",
",$	c #F33162",
"'$	c #441621",
")$	c #701B31",
"!$	c #881F3A",
"~$	c #95223E",
"{$	c #A12343",
"]$	c #A72546",
"^$	c #AD2648",
"/$	c #BF294E",
"($	c #D82D58",
"_$	c #DE2E59",
":$	c #E42E5C",
"<$	c #F03061",
"[$	c #FC3265",
"}$	c #1D0E12",
"|$	c #241014",
"1$	c #291016",
"2$	c #481622",
"3$	c #4E1724",
"4$	c #541826",
"5$	c #61192B",
"6$	c #671B2E",
"7$	c #731C32",
"8$	c #791E35",
"9$	c #AA2547",
"0$	c #AF2649",
"a$	c #BC294D",
"b$	c #C82B52",
"c$	c #D42D56",
"d$	c #DB2D59",
"e$	c #E12E5A",
"f$	c #FA3264",
"g$	c #210F14",
"h$	c #32131A",
"i$	c #451522",
"j$	c #7C1E36",
"k$	c #821E38",
"l$	c #8E213D",
"m$	c #9B2341",
"n$	c #AD2647",
"o$	c #BF294F",
"p$	c #C62951",
"q$	c #CC2B53",
"r$	c #D22B55",
"s$	c #D72D58",
"t$	c #DE2D5A",
"u$	c #FD3366",
"v$	c #36131B",
"w$	c #4E1725",
"x$	c #541727",
"y$	c #671A2D",
"z$	c #791E34",
"A$	c #7F1E36",
"B$	c #92223D",
"C$	c #972340",
"D$	c #A42545",
"E$	c #B02649",
"F$	c #C3294F",
"G$	c #C92B52",
"H$	c #D52C57",
"I$	c #DB2E58",
"J$	c #E72F5E",
"K$	c #EE3160",
"L$	c #F93264",
"M$	c #33131A",
"N$	c #461521",
"O$	c #521725",
"P$	c #9B2340",
"Q$	c #A12443",
"R$	c #BA284D",
"S$	c #C62A51",
"T$	c #D82D57",
"U$	c #EB305E",
"V$	c #FD3266",
"W$	c #AB2547",
"X$	c #C32A50",
"Y$	c #D62C56",
"Z$	c #1B0E11",
"`$	c #210F13",
" %	c #2D1219",
".%	c #641B2D",
"+%	c #771D33",
"@%	c #8F213D",
"#%	c #95223F",
"$%	c #A82446",
"%%	c #B4274B",
"&%	c #C0284F",
"*%	c #D32B55",
"=%	c #E52F5D",
"-%	c #F13161",
";%	c #F73263",
">%	c #1E0F12",
",%	c #551827",
"'%	c #741D33",
")%	c #7A1E34",
"!%	c #7F1F36",
"~%	c #8C203C",
"{%	c #982340",
"]%	c #A42544",
"^%	c #B12649",
"/%	c #B7284B",
"(%	c #CA2B52",
"_%	c #CF2B55",
":%	c #D52D56",
"<%	c #DC2E59",
"[%	c #E22E5B",
"}%	c #F43162",
"|%	c #0F0D0D",
"1%	c #531726",
"2%	c #5E192B",
"3%	c #7D1E35",
"4%	c #A22443",
"5%	c #B4274A",
"6%	c #BA284C",
"7%	c #C0294E",
"8%	c #CC2A53",
"9%	c #D22C55",
"0%	c #D82C58",
"a%	c #E52F5C",
"b%	c #F13060",
"c%	c #F83263",
"d%	c #431520",
"e%	c #621A2B",
"f%	c #741C32",
"g%	c #86203A",
"h%	c #992240",
"i%	c #A52544",
"j%	c #B12749",
"k%	c #BD294E",
"l%	c #C92A52",
"m%	c #E12F5B",
"n%	c #E82F5E",
"o%	c #EE3060",
"p%	c #1B0E12",
"q%	c #2E1119",
"r%	c #3A131D",
"s%	c #4C1723",
"t%	c #5F1A2A",
"u%	c #7D1F36",
"v%	c #D32C55",
"w%	c #D92D58",
"x%	c #DF2E5A",
"y%	c #EB305F",
"z%	c #F73164",
"A%	c #FD3365",
"B%	c #3D131E",
"C%	c #431521",
"D%	c #491523",
"E%	c #6E1B31",
"F%	c #7B1E34",
"G%	c #9E2342",
"H%	c #B7274C",
"I%	c #BE294D",
"J%	c #D02B54",
"K%	c #DC2D59",
"L%	c #E22E5C",
"                                                                                                                                ",
"                                                                                                                                ",
"                                                                                                                                ",
"        . . . . . + @ @ # $ $ % % & * *                                                                                         ",
"        . . . . . . . . . . . . . . . . . . . . . . #                                                                           ",
"        . . . . . . . . . . . . . . . . . . . . . . .                                                                           ",
"        . . . . . . . . . . . . . . . . . . . . . . . .                                                                         ",
"        . . . . . . . . . . . . . . . . . . . . . . . . =                                                                       ",
"        . . . . . . . . . . . . . . . . . . . . . . . . .                                                                       ",
"        . . . . . . . . . . . . . . . . . . . . . . . . . .                                                                     ",
"        - - ; ; ; ; ; ; > ; , , ; - ; ; , , ; > ; - ; - > ' , - ; ) ; - ; ! ; ! ! - > ' > , ; ; ; ; ~ ! ) ~ ! ~ , ! ~           ",
"        { ] { ^ ] ] { / ] ] ] / ] / ] { ] { ] ] ] ] ] ] ] ] ] { ] ] ] ] ] ] ] ] ] ] ] ] ( ] ] ] ] ( ] ] ] ] ( ] ] ] _           ",
"        : : < [ } [ | 1 2 [ < [ } 1 | } [ 2 3 < : | } } | } 2 | 2 : : : 3 < 3 } < 2 | } } } < | | : | } } } } < } } }           ",
"        4 5 6 4 6 6 6 6 6 4 6 6 4 7 8 6 5 6 5 8 6 4 5 6 6 6 6 9 7 6 4 5 6 0 8 7 7 5 4 7 6 5 8 0 0 7 7 9 8 5 @ 0 4 8 6           ",
"        = a = = b = c = = d = = b e d = = e = = = = = = = = = = = = = = = f = = = g = = = = = = = = = = = f = h = = g           ",
"        i j k k l i l m k # n n n m i i j # # o n i k o n i o n o m m m o n n n i i j i i j i j j n o j j j j j j j j           ",
"        p p p p p p q r s t u v t t t s v w x w y y z w A y x B C D C E F C F G H G I F C C H J C H D J J D C C C E J           ",
"  K K K K K K K K K K K K K K K K K K K K K K K K K K K K K K K K K K K K K K K K K K K K K K K K K K K K K K K K K K K K K     ",
"  K L L L L L L L L L L L L L L L L L L L L L L L L L L L L L L L L L L L L L L L L L L L L L L L L L L L L L L L L M N O K     ",
"  K L L L L L L L L L L L L L L L L L L L L L L L L L L L L L L L L L L L L L L L L L L L L L L L L L L L L L L P Q R S T K     ",
"  K L L L L L L L L L L L L K K L L L L L L L L L L L L L L L L L L L L L L L L L L L L L L L L L L L L L L L M U O V W X K     ",
"  K L L L L L L L L L K K K K K K K K K L L L L L L L L L L L L L L L L L L L L L L L L L L L L L L L L L Y Q R Z `  ...+.K     ",
"  K L L L L L L L K K K K K K K K K K K K L L L L L L L L L L L L L L L L L L L L L L L L L L L L L L L @.#.$.%.&.*.=.-.;.K     ",
"  K L L L L L L K K K K K K K K K K K K K K L L L L L L L L L L L L L L L L L L L L L L L L L L L L >.,.'.Z ).!.~.{.].^./.K     ",
"  K L L L L L K K K K K K K K K K K K K K K K L L L L L L L L L L L L L L L L L L L L L L L L L L (._.:.<.[.}.|.-.1.2.3.4.K     ",
"  K L L L L L K K K K K K K K K K K K K K K K L L L L L L L L L L L L L L L L L L L L L L L L >.,.R 5.).6.7.+.].^.8.9.0.a.K     ",
"  K L L L L K K K K K K K K K K K K K K K K K K L L L L L L L L L L L L L L L L L L L L L L b.c.d.e.[.*.|.f.g.h.i.j.k.l.m.K     ",
"  K L L L L K K K K K K K L L L K K K K K K K K L L L L L L L L L L L L L L L L L L L L >.n.'.o.p.6.q.r.s.^.t.u.v.w.x.y.z.K     ",
"  K L L L L K K K K K K K L L L L K K K K K K K L L L L L L L L L L L L L L L L L L L b.A.:.<.[.*.B.f.1.C.D.4.E.F.G.H.I.J.K     ",
"  K L L L L K K K K K K L L L L L L K K K K K K L L L L L L L L L L L L L L L L L >.K.L.o.).M.N.{.].O.8.9.v.a.P.Q.R.S.T.U.K     ",
"  K L L L L K K K K K K L L L L L K K K K K K K L L L L L L L L L L L L L L L L b.V.:.<.[.W.B.X.g.Y.Z.4.E.F.`. +.+J.++@+#+K     ",
"  K L L L L K K K K K K L L L L L K K K K K K K L L L L L L L L L L L L L L $+%+&+*+).=+-+;+>+,+t.9.'+)+!+~+{+]+T.^+/+(+_+K     ",
"  K L L L L K K K K K K L L K K K K K K K K K K L L L L L L L L L L L L L :+V.:.<.<+[+}+|+1+2+i.3+4+5+6+7+8+9+0+a+b+c+d+e+K     ",
"  K L L L L K K K K K K L L K K K K K K K K K K L L L L L L L L L L L $+f+g+h+i+j+-+k+l+O.t.m+'+n+o+p+{+]+T.q+r+s+t+u+v+w+K     ",
"  K L L L L K K K K K K L L K K K K K K K K K L L L L L L L L L L L x+y+:.z+A+B+C+|+1+D+i.3+E+F+6+7+8+G+++H+I+J+K+L+M+N+O+K     ",
"  K L L L L K K K K K K L L K K K K K K K K L L L L L L L L L L P+N Q+h+R+M.-+S+>+T+U+V+W+X+!+~+Y+]+Z+^+`+ @t+.@+@@@#@$@%@K     ",
"  K L L L L K K K K K K L L K K K K K K K K L L L L L L L L &@b.V.*@z+=@-@;@>@1+,@'@3+)@F+`.!@~@G+{@]@^@/@d+L+(@_@:@<@[@}@K     ",
"  K L L L L K K K K K K L L K K K K K K L L L L L L L L L P+N |@h+1@2@-+k+3@4@5@m+W+6@7@8@9@0@T.a@b@c@t+d@+@e@f@g@h@i@j@k@K     ",
"  K L L L L K K K K K K L L K K K K L L L L L L L L L &@x+l@*@z+m@B+B.|+1+,@n@o@p@5+q@!@~@9+r@a+s@t@K+u@v@w@x@y@z@A@B@C@D@K     ",
"  K L L L L K K K K K K L L L L L L L L L L L L L L M %+O *+E@X F@G@H@4@U+m+I@J@!+8@9@K@L@a@M@N@t+O@v+@@P@g@h@Q@R@k@S@T@U@K     ",
"  K L L L L K K K K K K L L L L L L L L L L L L V@,.R Z W@X@Y@B.>@1+,@'@0.w.F+6+!@~@G+r@]@Z@t@`@ #.#+#:@@###A@$#%#D@&#*#=#K     ",
"  K L L L L K K K K K K L L L L L L L L L L L -##.|@h+;#=+>#S+l+,#5@'#)#!#~#8@{#]#Z+^#/#c@(#_#+@e@f@:#h@Q@R@k@<#T@[#}#|#1#K     ",
"  K L L L L K K K K K K L L L L L L L L L 2#3#l@S z+4#Y@;@>@^.5#6#3+p@7#8#9#~@G+0#a#b#t@`@c#d#+#x@e#f#g#h#i#j#k#*#=#l#m#n#K     ",
"  K L L L L K K K K K K L L L L L L L L (.#.O %.;#o#>#p#3@,#D.'#q#6@r#s#.+]#t#u#v#w#x#d@y#e@f@z#A#B#C#k@S@T@U@}#|#D#E#K K K     ",
"  K L L L L K K K K K K L L L L L L >.Q R S F#!.Y@;@>@^.5#G#o@w.x.q@z.~@H#I#]@s@t@J#K#.#L#M#e###N#O#P#Q#R#S#T#U#V#W#K K K K     ",
"  K L L L L K K K K K K L L L L L X##.O V Y#X =.S+;.,#3.j.Z#6@~#s#`# $.$+$M@c@@$O@#$e@$$%$A#&$C#*$=$-$;$>$|#,$E#K K K K K K     ",
"  K L L L L K K K K K K L L L >.Q R Z p.!.q.;+].'$5#G#0.w.7#Q.)$S.H#{@!$b#~$J#{$]$^$M#e#/$N#h#P#($_$:$T#<$m#[$K K K K K K K     ",
"  K L L L L K K K K K K L L (.c.}$|$1$}.>#f.;.2$3$4$Z#5$6$H.7$8$t#+$v#c@@$O@#$9$0$%$a$B#b$*$c$d$e$>$|#,$f$K K K K K K K K K     ",
"  K L L L L L L L L L L P Q '.g$p.6.h$+.s.i$t.u.0.a.x.Q.z.S.j$k$a#l$~$m$K#]$n$M#e#o$p$q$r$s$t$:$=#U#m#u$K K K K K K K K K K     ",
"  K L L L L L L L L L (.A.d.<.Y#}.v$-.;.Y.w$x$q#5$y$H.7$z$A$H+M@B$C$e+D$9$E$%$[@F$G$*$H$I$;$J$K$,$L$K K K K K K K K K K K K     ",
"  K L L L L L L L Y ,.R Z ). .M${.].N$8.O$v.a.x.y.z.S.T.I#r+b#~$P$Q$]$^$M#R$o$S$h#r$T$R#:$U$<$m#V$K K K K K K K K K K K K K     ",
"  K L L L L L L (.V.O %.[.*.B.f.;.2$w$4.k.5$6$H.7$J.0++$b+B$@$e+#$W$E$z#[@X$R@*$Y$d$;$>$|#,$L$K K K K K K K K K K K K K K K     ",
"  K L L L L P n.Z$`$). %~.;+>+N$t.u.v.a..%y.z.+%T.U.r+@%#%m$Q$$%n$%%R$&%S$q$*%($R#=%=#-%;%u$K K K K K K K K K K K K K K K K     ",
"  K L L L :+A.>%<.[.}.}+f.g.2$i.,%k.l.G.H.'%)%!%@+~%B${%L+]%9$^%/%[@}@(%_%:%<%[%>$K$}%f$K K K K K K K K K K K K K K K K K K     ",
"  K L |%Q L.g$1@6.M${.>+O.8.1%v.2%.%~+R.+%3%U.r+s+#%.@4%@@#@5%6%7%p$8%9%0%R#a%U$b%c%u$K K K K K K K K K K K K K K K K K K K     ",
"  K b.c.*@<.=@*.B.|+d%Y.i.,%4+e%G. +f%)%++g%#+c+h%L+i%N+j%/%k%F$l%C@:%d$m%n%o%}%f$K K K K K K K K K K K K K K K K K K K K K     ",
"  K p%*+p.q%-+r%>+O.s%V+)#t%!+~+R.]+u%a@`+@%t+.@v+@@f@5%R$Q@j@q$v%w%x%a%y%1#z%A%K K K K K K K K K K K K K K K K K K K K K K     ",
"  K <.<+-@}+B%C%D%i.,%)@F+`.E%f%F%{@H+~%c+h%G%v@N+j%H%I%}@l%J%D@K%L%n%o%}%f$K K K K K K K K K K K K K K K K K K K K K K K K     ",
"  K K K K K K K K K K K K K K K K K K K K K K K K K K K K K K K K K K K K K K K K K K K K K K K K K K K K K K K K K K K K K     ",
"                                                                                                                                ",
"                                                                                                                                ",
"                                                                                                                                ",
"                                                                                                                                ",
"                                                                                                                                "};
