/* XPM */
static char *dummy[]={
"32 32 11 1",
"d c #000000",
"f c #ff8e8e",
"# c #ffffff",
"g c #ff8e8e",
"a c #ffffff",
"e c #ff8e8e",
"h c #ff8e8e",
"i c #ff8e8e",
". c #ffffff",
"c c #000000",
"b c None",
".#a#########bbbbbbbbbbbbbbbbbbbb",
"bbbbbbbbbbbbbbbbbbbbbbbbbbbbbbbb",
"bbbcccccccddcccccccccccccccccbbb",
"bbccccccccccccccccccccccccccccbb",
"bbcceeeeeeffeeeeeeeeeeeeeeeeccbb",
"bbcceeeeeeeeeeeeeeeeeeeeeeeeccbb",
"bbcceeeeeeffeeeeeeeeeeeeeeeeccbb",
"bbcceeeeeeeeeeeeeeeeeeeeeeeeccbb",
"bbcceeeeeeffeeeeeeeeeeeeeeeeccbb",
"bbcceeeeeeeeeeeeeeeeeeeeeeeeccbb",
"bbcceeeeeegfgfeeffffeeeeeeeeccbb",
"bbcceeeeeeeeeeeeeeeeeeeeeeeeccbb",
"bbcceeeeeeeeeeeeeeeeeeeeeeeeccbb",
"bbcceeeeeeeeeeeeeeeeeeeeeeeeccbb",
"bbcceeeeeeeeeeeeffffeeeeeeeeccbb",
"bbcceeeeeeeeeeeeeeeeeeeeeeeeccbb",
"bbcceeeeeeeeeeeeeeeeeeeeeeeeccbb",
"bbcceeeeeeeeeeeeeeeeeeeeeeeeccbb",
"bbcceeeeeeeeeeeeffeeeeeeeeeeccbb",
"bbcceeeeeeeeeeeeeeeeeeeeeeeeccbb",
"bbcceeeeeeeeeeeehfffififgfgfccbb",
"bbcceeeeeeeeeeeeeeeeeeeeeeeeccbb",
"bbcceeeeeeeeeeeeeeeeeeeeeeeeccbb",
"bbcceeeeeeeeeeeeeeeeeeeeeeeeccbb",
"bbcceeeeeeeeeeeeeeeeeeeeeeeeccbb",
"bbcceeeeeeeeeeeeeeeeeeeeeeeeccbb",
"bbcceeeeeeeeeeeeeeeeeeeeeeeeccbb",
"bbcceeeeeeeeeeeeeeeeeeeeeeeeccbb",
"bbccccccccccccccccccccccccccccbb",
"bbbccccccccccccccccccccccccccbbb",
"bbbbbbbbbbbbbbbbbbbbbbbbbbbbbbbb",
"bbbbbbbbbbbbbbbbbbbbbbbbbbbbbbbb"};
