/* XPM */
static char *dummy[]={
"32 32 24 1",
"e c #000000",
"g c #ff8e8e",
"# c None",
"d c #ffffff",
"t c #ff8e8e",
"a c #ffffff",
"j c #ff8e8e",
"p c #000000",
"i c #ff8e8e",
"o c #ff8e8e",
"r c #ff8e8e",
"c c #ffffff",
"u c #000000",
"v c #ff8e8e",
". c #ffffff",
"k c #ff8e8e",
"n c #ff8e8e",
"q c #ffffff",
"m c #ff8e8e",
"l c #ff8e8e",
"h c #ff8e8e",
"f c #000000",
"s c #ff8e8e",
"b c #ffffff",
".#.#a#a#########################",
"######b###########c##d########bb",
"bb#eeeeeeeeeeeeeeeeeeeeeeeeee###",
"##ffeeeeeeeeeeeeeeeeeeeeeeeeee##",
"##eegggggggggggefgggggggggggee##",
"##eegggggghggggeegggggggigjgee##",
"##eekglmnogggggeegggggggggggpeq#",
"##eegggggggggggeegggggggggggee##",
"##eegggggggggggeegggggrgggggee##",
"##ffssgggggggggeegggggggggggee##",
"##eeggssggtgtggeegggggggggggee##",
"##eegggggggggggeegggsgggggggee##",
"##eeggggggggggheegggggggggggffbb",
"##eegggggggggggeegggggggggggee##",
"bbeegggggggggggeegggggggggggee##",
"##eeeeeeeeeeeefeeeeeeeeeeeeeee##",
"##eeeeffffeeeeeeeeeeeeeeeeeeee##",
"##eeggggggssgggeegggggggggggee##",
"##eegggggggggggeegggggggsgggee##",
"##eegggggggggggeeghgggggggggee##",
"bbffgggggggggggeugggvgvgggggee##",
"##eessgggggggggeegggggggggggee##",
"##eegggggggggggeegsgggggggggee##",
"##eeggggggssssgeegggggggggggee##",
"##eeggggggggggsfegggggggggggee##",
"##eegggggggggggeegggggggggggfe##",
"##eegggggggggggeeggggghgggggee##",
"##eessssgggggggeegggggggggggee##",
"##eeeeeeffeeeeeeeeeeeeeeeeeeee##",
"###eeeeeeeeeeeeeeeeeeefeeeeee###",
"##############bbbb##############",
"##################bb############"};
