/* XPM */
static char *dummy[]={
"32 32 11 1",
"d c #ff8e8e",
"# c #ffffff",
"h c #ff8e8e",
"a c #ffffff",
"e c #ff8e8e",
"c c #ffffff",
"f c #ff8e8e",
"i c #ff8e8e",
"g c #ff8e8e",
". c #ffffff",
"b c None",
".#a########b######bbbbbbbbbbbbbb",
"bbbbbbbbbbbbbbbbbbbbbbbbbbbbbbbb",
"bbbbbbbbbbbbc###################",
"###dddddddddddddddddddddddddd###",
"###dddddddddededdffffffffffffbbb",
"bbbfffffffffffffddddddfffffffbbb",
"bbbffffffffffffffffffffffffffbbb",
"bbbfffffffffffffeddfedddedgdd###",
"###dfffffffffffffffffffffffffbbb",
"bbbffffffffffffffffffffffffffbbb",
"bb#dfffffffffffffffffffffffffbbb",
"bbbffffffffffffffffffffffffffbbb",
"bb#dfffffffffffffffffffffffffbbb",
"bbbffffffffffffffffffffffffffbbb",
"bb#dfffffffffffffffffffffffffbbb",
"bbbffffffffffffffffffffffffffbbb",
"bb#dfffffffffffffffffffffffffbbb",
"bbbffffffffffffffffffffffffffbbb",
"bbcdhdffddddfffffffffffffffffbbb",
"bbbffffffffffffffffffffffffffbbb",
"bbbffffffffffffffffffffffffffbbb",
"bbbffffffffffffffffffffffffffbbb",
"bbbfffffddddfffffffffffffffffbbb",
"bbbffffffffffffffffffffffffffbbb",
"bbbffffffffffffffffffffffffffbbb",
"bbbffffffffffffffffffffffffffbbb",
"bbbfffffddfffffffffffffffffffbbb",
"bbbffffffffffffffffffffffffffbbb",
"bbbfffffidddgdgdfffffffffffffbbb",
"bbbbbbbbbbbbbbbbbbbbbbbbbbbbbbbb",
"bbbbbbbbbbbbbbbbbbbbbbbbbbbbbbbb",
"bbbbbbbbbbbbbbbbbbbbbbbbbbbbbbbb"};
