/* XPM */
static char *dummy[]={
"32 32 13 1",
"e c #000000",
"g c #ff8e8e",
"# c #ffffff",
"f c #000000",
"h c #ff8e8e",
"b c None",
"d c #000000",
"i c #ff8e8e",
"c c #ffffff",
"j c #000000",
"k c #ff8e8e",
"a c #ffffff",
". c #ffffff",
".#.#a#a#b#b#b#b#b#c#b#b#b#c#b#b#",
"c#b#b#c#b#b#b#b#c#b#b#b#c#c#b#b#",
"b#b#b#b#b#b#b#c#b#b#b#b#b#c#b#b#",
"b#b#c#c#b#b#b#b#b#b#b#c#b#b#b#b#",
"b#b#b#b#b#b#c#a#b#c#b#c#b#b#b#b#",
"b#b#b#defefefedefefefefefec#b#b#",
"b#b#befefefefefefefefefedef#b#b#",
"b#b#befghghghghgighghghghef#b#b#",
"b#b#befghghgighghghghgighef#b#b#",
"b#b#befghghghghghghghghghed#b#b#",
"b#b#aefghghghghgighghghghed#b#c#",
"c#b#befghgighghghghghghghed#b#c#",
"c#b#befgighghghghghghghghef#b#b#",
"b#b#befgighghghghghghgigiej#b#b#",
"b#b#befgigighghghghghghgief#c#b#",
"c#c#befghghgighghgighgighed#b#b#",
"b#b#befghghghgighghghghghef#b#b#",
"b#c#befghghgighghgighgkghed#b#c#",
"b#b#bedghghgighghgighgigied#c#c#",
"b#b#befghghghghghghghghghed#c#b#",
"b#b#befgighghgighghghghgiej#a#b#",
"c#c#befghghghgigighgighgkef#c#b#",
"b#b#befgighgighghgighghghef#b#b#",
"b#b#befgigighghghghghgighed#b#b#",
"b#b#befghgigkgighgighghgief#c#b#",
"b#b#befededefefefefefefefef#b#c#",
"b#b#b#dedefedefefefefefefea#b#b#",
"c#b#c#c#b#b#c#b#b#b#c#c#b#c#b#b#",
"b#c#b#c#b#b#c#b#c#b#b#b#b#b#b#b#",
"b#c#b#b#b#b#a#b#c#b#b#b#b#c#c#c#",
"b#c#b#b#b#b#b#b#b#b#b#b#b#b#c#b#",
"b#b#b#b#c#b#b#c#b#b#b#b#b#b#b#c#"};
