/* XPM */
static char *dummy[]={
"32 32 13 1",
"d c #000000",
"f c #ff8e8e",
"# c #ffffff",
"k c #000000",
"h c #ff8e8e",
"a c #ffffff",
"g c #ff8e8e",
"e c #ff8e8e",
"i c #000000",
"j c #ff8e8e",
". c #ffffff",
"c c #000000",
"b c None",
".#.#a#a#########bbbbbbbbbbbbbbbb",
"bbbbbbbbbbbbbbbbbbbbbbbbbbbbbbbb",
"bbbbbbbbbb######bbbbbbbbbbbbbbbb",
"bbbbbbbbbbbbbbbbbbbbbbbbbbbbbbbb",
"bbbbbbbbbb######bbbbbbbbbbbbbbbb",
"bbbbbbccccccccccccccccccccbbbbbb",
"bbbbbcccccddddddcccccccccccbbbbb",
"bbbbbcceeeeeeeecceeeeeeeeccbbbbb",
"bbbbbcceeefffffdceeeeeeeeccbbbbb",
"bbbbbcceeeeeeeecceeeeeeeeccbbbbb",
"bbbbbcceeegfhfecdffffffffdd#bbbb",
"bbbbbcceeeeeeeecceeeeeeeeccbbbbb",
"bbbbbcceeeeeeeecceeeeeeeeccbbbbb",
"bbbbbcceeeeeeeecceeeeeeeeccbbbbb",
"bbbbbcceeeeeeeecdffffffffdd#bbbb",
"bbbbbccccccccccccccccccccccbbbbb",
"bbbbbccccccccccccccccccccccbbbbb",
"bbbbbcceeeeeeeecceeeeeeeeccbbbbb",
"bbbbbcceeeeeeeecdfffffeeeccbbbbb",
"bbbbbcceeeeeeeecceeeeeeeeccbbbbb",
"bbbbbcceeeeeeeecifffjfjfhdk#bbbb",
"bbbbbcceeeeeeeecceeeeeeeeccbbbbb",
"bbbbbcceeeeeeeecceeeeeeeeccbbbbb",
"bbbbbcceeeeeeeecceeeeeeeeccbbbbb",
"bbbbbcceeeeeeeecceeeeeeeeccbbbbb",
"bbbbbccccccccccccccccccccccbbbbb",
"bbbbbbccccccccccccccccccccbbbbbb",
"bbbbbbbbbbbbbbbbbbbbbbbbbbbbbbbb",
"bbbbbbbbbbbbbbbbbbbbbbbbbbbbbbbb",
"bbbbbbbbbbbbbbbbbbbbbbbbbbbbbbbb",
"bbbbbbbbbbbbbbbbbbbbbbbbbbbbbbbb",
"bbbbbbbbbbbbbbbbbbbbbbbbbbbbbbbb"};
